<?xml version="1.0" encoding="UTF-8"?>
<svg version="1.1" xmlns="http://www.w3.org/2000/svg" width="100" height="100">
<path d="M0 0 C1.53718437 -0.01925285 1.53718437 -0.01925285 3.10542297 -0.03889465 C4.21685165 -0.04628159 5.32828033 -0.05366852 6.47338867 -0.0612793 C7.61289474 -0.06935104 8.75240082 -0.07742279 9.92643738 -0.08573914 C12.34156773 -0.09958792 14.75671772 -0.1103065 17.171875 -0.11816406 C20.86585567 -0.1353792 24.55894214 -0.17925999 28.25268555 -0.22338867 C30.59708 -0.2335151 32.94148206 -0.24203136 35.28588867 -0.2487793 C36.39124466 -0.26628738 37.49660065 -0.28379547 38.63545227 -0.30183411 C46.31575407 -0.28010887 46.31575407 -0.28010887 50.25341797 2.07861328 C53.39156947 5.68599755 53.21782609 8.02146278 53.25585938 12.75048828 C53.26243057 13.42549881 53.26900177 14.10050934 53.27577209 14.79597473 C53.29551005 17.03366199 53.307169 19.27128211 53.31713867 21.5090332 C53.3212142 22.27323767 53.32528973 23.03744213 53.32948875 23.82480431 C53.3503521 27.87001653 53.36465237 31.91519482 53.37402344 35.96044922 C53.38508566 40.13699646 53.41948203 44.31301057 53.45919514 48.48936939 C53.48535245 51.70217371 53.49371447 54.91485087 53.49730492 58.1277523 C53.5021736 59.66712734 53.51379572 61.20649659 53.53234291 62.74576759 C53.55671611 64.90271742 53.55577361 67.05828639 53.54882812 69.21533203 C53.55469437 70.44173904 53.56056061 71.66814606 53.56660461 72.93171692 C52.98693665 76.78860797 51.78839023 78.42639379 49.07885742 81.17700195 C46.6052435 82.41380891 44.92481966 82.32387962 42.15771484 82.35400391 C40.62053047 82.37325676 40.62053047 82.37325676 39.05229187 82.39289856 C37.38514885 82.40397896 37.38514885 82.40397896 35.68432617 82.4152832 C34.5448201 82.42335495 33.40531403 82.4314267 32.23127747 82.43974304 C29.81614711 82.45359182 27.40099712 82.46431041 24.98583984 82.47216797 C21.29185918 82.48938311 17.59877271 82.53326389 13.9050293 82.57739258 C11.56063485 82.58751901 9.21623278 82.59603527 6.87182617 82.6027832 C5.21379219 82.62904533 5.21379219 82.62904533 3.52226257 82.65583801 C-4.15803923 82.63411277 -4.15803923 82.63411277 -8.09570312 80.27539062 C-11.23385463 76.66800636 -11.06011125 74.33254113 -11.09814453 69.60351562 C-11.10471573 68.9285051 -11.11128693 68.25349457 -11.11805725 67.55802917 C-11.1377952 65.32034192 -11.14945415 63.0827218 -11.15942383 60.8449707 C-11.16349936 60.08076624 -11.16757488 59.31656178 -11.17177391 58.5291996 C-11.19263726 54.48398737 -11.20693752 50.43880909 -11.21630859 46.39355469 C-11.22737082 42.21700745 -11.26176719 38.04099334 -11.30148029 33.86463451 C-11.32763761 30.6518302 -11.33599963 27.43915304 -11.33959007 24.2262516 C-11.34445875 22.68687657 -11.35608088 21.14750731 -11.37462807 19.60823631 C-11.39900126 17.45128648 -11.39805877 15.29571752 -11.39111328 13.13867188 C-11.39697952 11.91226486 -11.40284576 10.68585785 -11.40888977 9.42228699 C-10.8292218 5.56539594 -9.63067539 3.92761011 -6.92114258 1.17700195 C-4.44752866 -0.05980501 -2.76710482 0.03012429 0 0 Z M-6.67114258 5.55200195 C-9.29847274 8.96753116 -9.05117485 12.89616796 -9.06640625 17.05957031 C-9.0727861 18.24437485 -9.07916595 19.42917938 -9.08573914 20.64988708 C-9.08685196 21.92598343 -9.08796478 23.20207977 -9.08911133 24.5168457 C-9.09243973 25.83109024 -9.09576813 27.14533478 -9.09919739 28.49940491 C-9.10517783 31.27923402 -9.10703837 34.05903209 -9.10644531 36.83886719 C-9.10634368 40.39416312 -9.12000199 43.9492594 -9.13721752 47.50450802 C-9.15103346 50.90445691 -9.15042676 54.3043691 -9.15161133 57.7043457 C-9.15879684 58.97841782 -9.16598236 60.25248993 -9.17338562 61.56517029 C-9.17030899 62.75312698 -9.16723236 63.94108368 -9.1640625 65.16503906 C-9.16548752 66.20776474 -9.16691254 67.25049042 -9.16838074 68.32481384 C-8.84301591 72.07828655 -7.87873044 74.95825377 -5.54614258 77.92700195 C-2.58974818 80.20115149 0.67768369 80.30309796 4.30908203 80.32226562 C5.13351303 80.32864548 5.95794403 80.33502533 6.80735779 80.34159851 C7.6897261 80.34271133 8.57209442 80.34382416 9.48120117 80.3449707 C10.85327477 80.3499633 10.85327477 80.3499633 12.25306702 80.35505676 C14.18547056 80.36011377 16.11788281 80.36246547 18.05029297 80.36230469 C21.00201835 80.36449133 23.95336999 80.38266046 26.9050293 80.40161133 C28.78458531 80.40454549 30.6641431 80.40653013 32.54370117 80.4074707 C33.8642173 80.41824898 33.8642173 80.41824898 35.21141052 80.429245 C40.43576726 80.40982289 44.56991527 80.14831364 48.82885742 76.80200195 C51.45618758 73.38647274 51.2088897 69.45783594 51.22412109 65.29443359 C51.23050095 64.10962906 51.2368808 62.92482452 51.24345398 61.70411682 C51.2445668 60.42802048 51.24567963 59.15192413 51.24682617 57.8371582 C51.25015457 56.52291367 51.25348297 55.20866913 51.25691223 53.854599 C51.26289267 51.07476988 51.26475322 48.29497181 51.26416016 45.51513672 C51.26405852 41.95984079 51.27771684 38.40474451 51.29493237 34.84949589 C51.30874831 31.449547 51.30814161 28.0496348 51.30932617 24.6496582 C51.31651169 23.37558609 51.3236972 22.10151398 51.33110046 20.78883362 C51.32648552 19.00689857 51.32648552 19.00689857 51.32177734 17.18896484 C51.32320236 16.14623917 51.32462738 15.10351349 51.32609558 14.02919006 C51.00073076 10.27571736 50.03644528 7.39575014 47.70385742 4.42700195 C44.74746303 2.15285242 41.48003115 2.05090594 37.84863281 2.03173828 C37.02420181 2.02535843 36.19977081 2.01897858 35.35035706 2.0124054 C34.46798874 2.01129257 33.58562042 2.01017975 32.67651367 2.0090332 C31.76179794 2.0057048 30.84708221 2.0023764 29.90464783 1.99894714 C27.97224428 1.99389014 26.03983203 1.99153844 24.10742188 1.99169922 C21.15569649 1.98951258 18.20434485 1.97134345 15.25268555 1.95239258 C13.37312953 1.94945842 11.49357174 1.94747377 9.61401367 1.9465332 C8.73366959 1.93934769 7.8533255 1.93216217 6.94630432 1.92475891 C1.72194758 1.94418102 -2.41220043 2.20569027 -6.67114258 5.55200195 Z " fill="#000000" transform="translate(28.921142578125,8.822998046875)"/>
<path d="M0 0 C0 0.66 0 1.32 0 2 C-1.2065625 2.37125 -1.2065625 2.37125 -2.4375 2.75 C-5.11542181 3.69131366 -5.11542181 3.69131366 -5.65107727 5.75636292 C-6.03929553 8.25267746 -6.13455819 10.6210638 -6.14526367 13.14819336 C-6.15164352 14.17283188 -6.15802338 15.1974704 -6.16459656 16.25315857 C-6.16570938 17.35426468 -6.1668222 18.45537079 -6.16796875 19.58984375 C-6.17296135 21.29485802 -6.17296135 21.29485802 -6.17805481 23.03431702 C-6.18311593 25.43750606 -6.18546339 27.84070212 -6.18530273 30.24389648 C-6.18748952 33.9198768 -6.20565495 37.59555714 -6.22460938 41.27148438 C-6.22754339 43.60676981 -6.22952813 45.94205666 -6.23046875 48.27734375 C-6.23765427 49.37642563 -6.24483978 50.47550751 -6.25224304 51.6078949 C-6.24916641 52.63568558 -6.24608978 53.66347626 -6.24291992 54.72241211 C-6.24434494 55.62301865 -6.24576996 56.52362518 -6.24723816 57.45152283 C-5.97090076 60.29994863 -5.25641225 62.43542864 -4 65 C-0.5051215 66.70210168 3.81803064 66.16193674 7.65234375 66.16796875 C8.38949112 66.17129715 9.12663849 66.17462555 9.88612366 66.17805481 C11.44189838 66.18310673 12.99768388 66.18546367 14.5534668 66.18530273 C16.92580099 66.18748922 19.29766987 66.20566285 21.66992188 66.22460938 C23.18489425 66.22754372 24.69986882 66.22952824 26.21484375 66.23046875 C26.9201976 66.23765427 27.62555145 66.24483978 28.35227966 66.25224304 C32.30288207 66.23403173 35.56336102 66.04549334 39 64 C39.89943749 62.1398613 39.89943749 62.1398613 40 60 C40.06775635 59.33516602 40.1355127 58.67033203 40.20532227 57.98535156 C40.24197998 57.2940918 40.2786377 56.60283203 40.31640625 55.890625 C40.35830078 55.13652344 40.40019531 54.38242188 40.44335938 53.60546875 C40.48267578 52.82816406 40.52199219 52.05085938 40.5625 51.25 C40.62727539 50.06083984 40.62727539 50.06083984 40.69335938 48.84765625 C40.79902991 46.89862185 40.89997966 44.94933252 41 43 C41.33 43 41.66 43 42 43 C42.08701039 46.60401481 42.14039388 50.20776012 42.1875 53.8125 C42.21263672 54.83666016 42.23777344 55.86082031 42.26367188 56.91601562 C42.27333984 57.89892578 42.28300781 58.88183594 42.29296875 59.89453125 C42.3086792 60.80050049 42.32438965 61.70646973 42.34057617 62.63989258 C41.92317292 65.5323924 41.26777525 66.21535802 39 68 C36.98901367 68.38095093 36.98901367 68.38095093 34.66796875 68.38818359 C33.79696533 68.39764008 32.92596191 68.40709656 32.02856445 68.4168396 C31.09101318 68.41076691 30.15346191 68.40469421 29.1875 68.3984375 C28.22223389 68.40130768 27.25696777 68.40417786 26.26245117 68.40713501 C24.22151096 68.40917661 22.18055123 68.40364007 20.13964844 68.39111328 C17.0119256 68.3750612 13.88549504 68.39095895 10.7578125 68.41015625 C8.77603881 68.40817384 6.79426592 68.4043302 4.8125 68.3984375 C3.87494873 68.40451019 2.93739746 68.41058289 1.97143555 68.4168396 C1.10043213 68.40738312 0.22942871 68.39792664 -0.66796875 68.38818359 C-1.43391357 68.38579681 -2.1998584 68.38341003 -2.98901367 68.38095093 C-5 68 -5 68 -6.74649048 66.84976196 C-8.54192758 64.20029565 -8.38118086 62.20107016 -8.38818359 59.015625 C-8.39764008 57.78424805 -8.40709656 56.55287109 -8.4168396 55.28417969 C-8.41146989 53.93944986 -8.40531694 52.59472296 -8.3984375 51.25 C-8.40045847 49.8714177 -8.4033701 48.49283645 -8.40713501 47.11425781 C-8.41155735 44.22580786 -8.40513058 41.33763633 -8.39111328 38.44921875 C-8.37402099 34.74670246 -8.38386272 31.04483854 -8.40183067 27.34234619 C-8.41267121 24.49588098 -8.40922103 21.64957045 -8.4014473 18.80310059 C-8.39944601 17.43794681 -8.40190208 16.07277898 -8.40888596 14.7076416 C-8.4165039 12.7998888 -8.40283406 10.89208676 -8.38818359 8.984375 C-8.38579681 7.89866211 -8.38341003 6.81294922 -8.38095093 5.69433594 C-8 3 -8 3 -6.64370728 1.13769531 C-4.38525295 -0.42549842 -2.6807971 -0.21736193 0 0 Z " fill="#000000" transform="translate(33,16)"/>
<path d="M0 0 C1.9375 1.0625 1.9375 1.0625 3 3 C3.26641894 6.72986522 3.1845131 9.44646071 2 13 C2.66 13 3.32 13 4 13 C7.12940055 16.97193147 7.29162929 20.04230204 7 25 C6.34 25 5.68 25 5 25 C4.731875 23.741875 4.46375 22.48375 4.1875 21.1875 C3.58319122 18.84890779 3.049772 17.08382652 1.8125 15 C-1.25995904 13.30485018 -3.58178648 13.52025073 -7 14 C-10.6517594 17.26736368 -11.5528665 20.19331488 -12 25 C-12.66 25 -13.32 25 -14 25 C-14.29162929 20.04230204 -14.12940055 16.97193147 -11 13 C-10.34 13 -9.68 13 -9 13 C-9.33 12.01 -9.66 11.02 -10 10 C-10.44237918 3.80669145 -10.44237918 3.80669145 -8.9375 1.0625 C-5.88023824 -0.6140629 -3.4093712 -0.36528977 0 0 Z M-8 4 C-8.33333333 6.5 -8.33333333 6.5 -8 9 C-6.17296773 11.2491908 -6.17296773 11.2491908 -3.5 11.25 C-0.82703227 11.2491908 -0.82703227 11.2491908 1 9 C1.33333333 6.5 1.33333333 6.5 1 4 C-0.82703227 1.7508092 -0.82703227 1.7508092 -3.5 1.75 C-6.17296773 1.7508092 -6.17296773 1.7508092 -8 4 Z " fill="#000000" transform="translate(44,23)"/>
<path d="M0 0 C13.2 0 26.4 0 40 0 C40 0.33 40 0.66 40 1 C26.8 1 13.6 1 0 1 C0 0.67 0 0.34 0 0 Z " fill="#000000" transform="translate(30,53)"/>
<path d="M0 0 C7.92 0 15.84 0 24 0 C24 0.33 24 0.66 24 1 C16.08 1 8.16 1 0 1 C0 0.67 0 0.34 0 0 Z " fill="#000000" transform="translate(30,74)"/>
<path d="M0 0 C7.92 0 15.84 0 24 0 C24 0.33 24 0.66 24 1 C16.08 1 8.16 1 0 1 C0 0.67 0 0.34 0 0 Z " fill="#000000" transform="translate(46,60)"/>
<path d="M0 0 C5.61 0 11.22 0 17 0 C17 0.33 17 0.66 17 1 C11.39 1 5.78 1 0 1 C0 0.67 0 0.34 0 0 Z " fill="#000000" transform="translate(30,67)"/>
<path d="M0 0 C5.28 0 10.56 0 16 0 C16 0.33 16 0.66 16 1 C10.72 1 5.44 1 0 1 C0 0.67 0 0.34 0 0 Z " fill="#000000" transform="translate(54,46)"/>
<path d="M0 0 C5.28 0 10.56 0 16 0 C16 0.33 16 0.66 16 1 C10.72 1 5.44 1 0 1 C0 0.67 0 0.34 0 0 Z " fill="#000000" transform="translate(54,39)"/>
<path d="M0 0 C5.28 0 10.56 0 16 0 C16 0.33 16 0.66 16 1 C10.72 1 5.44 1 0 1 C0 0.67 0 0.34 0 0 Z " fill="#000000" transform="translate(54,32)"/>
<path d="M0 0 C5.28 0 10.56 0 16 0 C16 0.33 16 0.66 16 1 C10.72 1 5.44 1 0 1 C0 0.67 0 0.34 0 0 Z " fill="#000000" transform="translate(54,25)"/>
<path d="M0 0 C4.62 0 9.24 0 14 0 C14 0.33 14 0.66 14 1 C9.38 1 4.76 1 0 1 C0 0.67 0 0.34 0 0 Z " fill="#000000" transform="translate(56,74)"/>
<path d="M0 0 C4.62 0 9.24 0 14 0 C14 0.33 14 0.66 14 1 C9.38 1 4.76 1 0 1 C0 0.67 0 0.34 0 0 Z " fill="#000000" transform="translate(30,60)"/>
<path d="M0 0 C3.63 0 7.26 0 11 0 C11 0.33 11 0.66 11 1 C7.37 1 3.74 1 0 1 C0 0.67 0 0.34 0 0 Z " fill="#000000" transform="translate(49,67)"/>
<path d="M0 0 C2.64 0 5.28 0 8 0 C8 0.33 8 0.66 8 1 C5.36 1 2.72 1 0 1 C0 0.67 0 0.34 0 0 Z " fill="#000000" transform="translate(62,67)"/>
<path d="M0 0 C0.33 0 0.66 0 1 0 C1 2.31 1 4.62 1 7 C0.67 7 0.34 7 0 7 C0 4.69 0 2.38 0 0 Z " fill="#000000" transform="translate(74,51)"/>
<path d="M0 0 C1 4 1 4 1 4 Z " fill="#000000" transform="translate(74,46)"/>
</svg>
